<svg xmlns="http://www.w3.org/2000/svg" xmlns:xlink="http://www.w3.org/1999/xlink" width="500" zoomAndPan="magnify" viewBox="0 0 375 374.999991" height="500" preserveAspectRatio="xMidYMid meet" version="1.0"><defs><clipPath id="a1f6d39dfb"><path d="M 187 187 L 318.75 187 L 318.75 318.75 L 187 318.75 Z M 187 187 " clip-rule="nonzero"/></clipPath><clipPath id="85c1f44adf"><path d="M 56.25 56.25 L 207 56.25 L 207 244 L 56.25 244 Z M 56.25 56.25 " clip-rule="nonzero"/></clipPath></defs><g clip-path="url(#a1f6d39dfb)"><path fill="#0072ff" d="M 253.125 318.75 C 254.199219 318.75 255.273438 318.722656 256.34375 318.671875 C 257.417969 318.617188 258.488281 318.539062 259.558594 318.433594 C 260.625 318.328125 261.691406 318.195312 262.753906 318.039062 C 263.816406 317.882812 264.875 317.699219 265.929688 317.488281 C 266.980469 317.28125 268.027344 317.042969 269.070312 316.785156 C 270.113281 316.523438 271.148438 316.234375 272.175781 315.925781 C 273.203125 315.613281 274.222656 315.277344 275.234375 314.914062 C 276.246094 314.550781 277.246094 314.164062 278.238281 313.753906 C 279.230469 313.34375 280.210938 312.910156 281.183594 312.449219 C 282.152344 311.988281 283.113281 311.507812 284.058594 311 C 285.007812 310.496094 285.941406 309.964844 286.863281 309.414062 C 287.785156 308.859375 288.691406 308.285156 289.585938 307.691406 C 290.476562 307.09375 291.355469 306.476562 292.21875 305.835938 C 293.082031 305.195312 293.925781 304.535156 294.757812 303.855469 C 295.585938 303.171875 296.398438 302.472656 297.195312 301.75 C 297.992188 301.027344 298.769531 300.289062 299.527344 299.527344 C 300.289062 298.769531 301.027344 297.992188 301.75 297.195312 C 302.472656 296.398438 303.171875 295.585938 303.855469 294.757812 C 304.535156 293.925781 305.195312 293.082031 305.835938 292.21875 C 306.476562 291.355469 307.09375 290.476562 307.691406 289.585938 C 308.285156 288.691406 308.859375 287.785156 309.414062 286.863281 C 309.964844 285.941406 310.496094 285.007812 311 284.058594 C 311.507812 283.113281 311.988281 282.152344 312.449219 281.183594 C 312.910156 280.210938 313.34375 279.230469 313.753906 278.238281 C 314.164062 277.246094 314.550781 276.246094 314.914062 275.234375 C 315.277344 274.222656 315.613281 273.203125 315.925781 272.175781 C 316.234375 271.148438 316.523438 270.113281 316.785156 269.070312 C 317.042969 268.027344 317.28125 266.980469 317.488281 265.929688 C 317.699219 264.875 317.882812 263.816406 318.039062 262.753906 C 318.195312 261.691406 318.328125 260.625 318.433594 259.558594 C 318.539062 258.488281 318.617188 257.417969 318.671875 256.34375 C 318.722656 255.273438 318.75 254.199219 318.75 253.125 C 318.75 252.050781 318.722656 250.976562 318.671875 249.90625 C 318.617188 248.832031 318.539062 247.761719 318.433594 246.691406 C 318.328125 245.625 318.195312 244.558594 318.039062 243.496094 C 317.882812 242.433594 317.699219 241.375 317.488281 240.320312 C 317.28125 239.269531 317.042969 238.222656 316.785156 237.179688 C 316.523438 236.136719 316.234375 235.101562 315.925781 234.074219 C 315.613281 233.046875 315.277344 232.027344 314.914062 231.015625 C 314.550781 230.003906 314.164062 229.003906 313.753906 228.011719 C 313.34375 227.019531 312.910156 226.039062 312.449219 225.066406 C 311.988281 224.097656 311.507812 223.136719 311 222.191406 C 310.496094 221.242188 309.964844 220.308594 309.414062 219.386719 C 308.859375 218.464844 308.285156 217.558594 307.691406 216.664062 C 307.09375 215.773438 306.476562 214.894531 305.835938 214.03125 C 305.195312 213.167969 304.535156 212.324219 303.855469 211.492188 C 303.171875 210.664062 302.472656 209.851562 301.75 209.054688 C 301.027344 208.257812 300.289062 207.480469 299.527344 206.722656 C 298.769531 205.960938 297.992188 205.222656 297.195312 204.5 C 296.398438 203.777344 295.585938 203.078125 294.757812 202.394531 C 293.925781 201.714844 293.082031 201.054688 292.21875 200.414062 C 291.355469 199.773438 290.476562 199.15625 289.585938 198.558594 C 288.691406 197.964844 287.785156 197.386719 286.863281 196.835938 C 285.941406 196.285156 285.007812 195.753906 284.058594 195.25 C 283.113281 194.742188 282.152344 194.261719 281.183594 193.800781 C 280.210938 193.339844 279.230469 192.90625 278.238281 192.496094 C 277.246094 192.085938 276.246094 191.699219 275.234375 191.335938 C 274.222656 190.972656 273.203125 190.636719 272.175781 190.324219 C 271.148438 190.015625 270.113281 189.726562 269.070312 189.464844 C 268.027344 189.207031 266.980469 188.96875 265.929688 188.761719 C 264.875 188.550781 263.816406 188.367188 262.753906 188.210938 C 261.691406 188.050781 260.625 187.921875 259.558594 187.816406 C 258.488281 187.710938 257.417969 187.632812 256.34375 187.578125 C 255.273438 187.527344 254.199219 187.5 253.125 187.5 C 252.050781 187.5 250.976562 187.527344 249.90625 187.578125 C 248.832031 187.632812 247.761719 187.710938 246.691406 187.816406 C 245.625 187.921875 244.558594 188.050781 243.496094 188.210938 C 242.433594 188.367188 241.375 188.550781 240.320312 188.761719 C 239.269531 188.96875 238.222656 189.207031 237.179688 189.464844 C 236.136719 189.726562 235.101562 190.015625 234.074219 190.324219 C 233.046875 190.636719 232.027344 190.972656 231.015625 191.335938 C 230.003906 191.699219 229.003906 192.085938 228.011719 192.496094 C 227.019531 192.90625 226.039062 193.339844 225.066406 193.800781 C 224.097656 194.261719 223.136719 194.742188 222.191406 195.25 C 221.242188 195.753906 220.308594 196.285156 219.386719 196.835938 C 218.464844 197.386719 217.558594 197.964844 216.664062 198.558594 C 215.773438 199.15625 214.894531 199.773438 214.03125 200.414062 C 213.167969 201.054688 212.324219 201.714844 211.492188 202.394531 C 210.664062 203.078125 209.851562 203.777344 209.054688 204.5 C 208.257812 205.222656 207.480469 205.960938 206.722656 206.722656 C 205.960938 207.480469 205.222656 208.257812 204.5 209.054688 C 203.777344 209.851562 203.078125 210.664062 202.394531 211.492188 C 201.714844 212.324219 201.054688 213.167969 200.414062 214.03125 C 199.773438 214.894531 199.15625 215.773438 198.558594 216.664062 C 197.964844 217.558594 197.386719 218.464844 196.835938 219.386719 C 196.285156 220.308594 195.753906 221.242188 195.25 222.191406 C 194.742188 223.136719 194.261719 224.097656 193.800781 225.066406 C 193.339844 226.039062 192.90625 227.019531 192.496094 228.011719 C 192.085938 229.003906 191.699219 230.003906 191.335938 231.015625 C 190.972656 232.027344 190.636719 233.046875 190.324219 234.074219 C 190.015625 235.101562 189.726562 236.136719 189.464844 237.179688 C 189.207031 238.222656 188.96875 239.269531 188.761719 240.320312 C 188.550781 241.375 188.367188 242.433594 188.210938 243.496094 C 188.050781 244.558594 187.921875 245.625 187.816406 246.691406 C 187.710938 247.761719 187.632812 248.832031 187.578125 249.90625 C 187.527344 250.976562 187.5 252.050781 187.5 253.125 C 187.5 254.199219 187.527344 255.273438 187.578125 256.34375 C 187.632812 257.417969 187.710938 258.488281 187.816406 259.558594 C 187.921875 260.625 188.050781 261.691406 188.210938 262.753906 C 188.367188 263.816406 188.550781 264.875 188.761719 265.929688 C 188.96875 266.980469 189.207031 268.027344 189.464844 269.070312 C 189.726562 270.113281 190.015625 271.148438 190.324219 272.175781 C 190.636719 273.203125 190.972656 274.222656 191.335938 275.234375 C 191.699219 276.246094 192.085938 277.246094 192.496094 278.238281 C 192.90625 279.230469 193.339844 280.210938 193.800781 281.183594 C 194.261719 282.152344 194.742188 283.113281 195.25 284.058594 C 195.753906 285.007812 196.285156 285.941406 196.835938 286.863281 C 197.386719 287.785156 197.964844 288.691406 198.558594 289.585938 C 199.15625 290.476562 199.773438 291.355469 200.414062 292.21875 C 201.054688 293.082031 201.714844 293.925781 202.394531 294.757812 C 203.078125 295.585938 203.777344 296.398438 204.5 297.195312 C 205.222656 297.992188 205.960938 298.769531 206.722656 299.527344 C 207.480469 300.289062 208.257812 301.027344 209.054688 301.75 C 209.851562 302.472656 210.664062 303.171875 211.492188 303.855469 C 212.324219 304.535156 213.167969 305.195312 214.03125 305.835938 C 214.894531 306.476562 215.773438 307.09375 216.664062 307.691406 C 217.558594 308.285156 218.464844 308.859375 219.386719 309.414062 C 220.308594 309.964844 221.242188 310.496094 222.191406 311 C 223.136719 311.507812 224.097656 311.988281 225.066406 312.449219 C 226.039062 312.910156 227.019531 313.34375 228.011719 313.753906 C 229.003906 314.164062 230.003906 314.550781 231.015625 314.914062 C 232.027344 315.277344 233.046875 315.613281 234.074219 315.925781 C 235.101562 316.234375 236.136719 316.523438 237.179688 316.785156 C 238.222656 317.042969 239.269531 317.28125 240.320312 317.488281 C 241.375 317.699219 242.433594 317.882812 243.496094 318.039062 C 244.558594 318.199219 245.625 318.328125 246.691406 318.433594 C 247.761719 318.539062 248.832031 318.617188 249.90625 318.671875 C 250.976562 318.722656 252.050781 318.75 253.125 318.75 Z M 225 250.640625 C 224.996094 250.1875 225.039062 249.738281 225.125 249.292969 C 225.210938 248.847656 225.339844 248.414062 225.511719 247.996094 C 225.683594 247.578125 225.894531 247.179688 226.148438 246.800781 C 226.398438 246.421875 226.683594 246.074219 227.003906 245.753906 C 227.324219 245.433594 227.675781 245.148438 228.050781 244.898438 C 228.429688 244.644531 228.828125 244.433594 229.246094 244.261719 C 229.664062 244.089844 230.097656 243.960938 230.542969 243.875 C 230.988281 243.789062 231.4375 243.746094 231.890625 243.75 L 237 243.75 C 237.445312 243.742188 237.882812 243.695312 238.316406 243.605469 C 238.75 243.511719 239.171875 243.378906 239.578125 243.207031 C 239.988281 243.035156 240.375 242.824219 240.742188 242.574219 C 241.109375 242.324219 241.449219 242.042969 241.761719 241.730469 C 242.074219 241.414062 242.355469 241.074219 242.601562 240.703125 C 242.847656 240.335938 243.054688 239.945312 243.226562 239.535156 C 243.394531 239.125 243.523438 238.703125 243.613281 238.269531 C 243.703125 237.835938 243.746094 237.398438 243.75 236.953125 L 243.75 231.84375 C 243.75 231.390625 243.792969 230.941406 243.882812 230.496094 C 243.972656 230.050781 244.105469 229.621094 244.28125 229.203125 C 244.453125 228.785156 244.667969 228.386719 244.921875 228.011719 C 245.175781 227.636719 245.464844 227.289062 245.789062 226.972656 C 246.109375 226.652344 246.460938 226.371094 246.839844 226.121094 C 247.21875 225.871094 247.617188 225.664062 248.039062 225.492188 C 248.460938 225.324219 248.894531 225.199219 249.339844 225.117188 C 249.785156 225.03125 250.234375 224.992188 250.6875 225 L 255.703125 225 C 256.152344 225.003906 256.59375 225.050781 257.03125 225.140625 C 257.46875 225.230469 257.894531 225.359375 258.308594 225.535156 C 258.71875 225.707031 259.113281 225.917969 259.484375 226.167969 C 259.855469 226.417969 260.195312 226.703125 260.511719 227.019531 C 260.828125 227.339844 261.109375 227.683594 261.355469 228.054688 C 261.605469 228.429688 261.8125 228.820312 261.984375 229.234375 C 262.152344 229.648438 262.28125 230.074219 262.371094 230.515625 C 262.457031 230.953125 262.5 231.394531 262.5 231.84375 L 262.5 236.953125 C 262.503906 237.402344 262.550781 237.84375 262.640625 238.28125 C 262.730469 238.71875 262.859375 239.144531 263.035156 239.558594 C 263.207031 239.96875 263.417969 240.363281 263.667969 240.734375 C 263.917969 241.105469 264.203125 241.445312 264.519531 241.761719 C 264.839844 242.078125 265.183594 242.359375 265.554688 242.605469 C 265.929688 242.855469 266.320312 243.0625 266.734375 243.234375 C 267.148438 243.402344 267.574219 243.53125 268.015625 243.621094 C 268.453125 243.707031 268.894531 243.75 269.34375 243.75 L 274.453125 243.75 C 274.902344 243.753906 275.347656 243.800781 275.789062 243.890625 C 276.226562 243.980469 276.65625 244.113281 277.070312 244.289062 C 277.484375 244.464844 277.875 244.675781 278.246094 244.929688 C 278.621094 245.179688 278.964844 245.46875 279.277344 245.789062 C 279.59375 246.109375 279.875 246.457031 280.121094 246.832031 C 280.371094 247.207031 280.578125 247.601562 280.746094 248.019531 C 280.917969 248.433594 281.042969 248.863281 281.128906 249.304688 C 281.210938 249.746094 281.253906 250.191406 281.25 250.640625 L 281.25 255.65625 C 281.25 256.105469 281.207031 256.546875 281.121094 256.984375 C 281.03125 257.425781 280.902344 257.851562 280.734375 258.265625 C 280.5625 258.679688 280.355469 259.070312 280.105469 259.445312 C 279.859375 259.816406 279.578125 260.160156 279.261719 260.480469 C 278.945312 260.796875 278.605469 261.082031 278.234375 261.332031 C 277.863281 261.582031 277.46875 261.792969 277.058594 261.964844 C 276.644531 262.140625 276.21875 262.269531 275.78125 262.359375 C 275.34375 262.449219 274.902344 262.496094 274.453125 262.5 L 269.34375 262.5 C 268.894531 262.5 268.453125 262.542969 268.015625 262.628906 C 267.574219 262.71875 267.148438 262.847656 266.734375 263.015625 C 266.320312 263.1875 265.929688 263.394531 265.554688 263.644531 C 265.183594 263.890625 264.839844 264.171875 264.519531 264.488281 C 264.203125 264.804688 263.917969 265.144531 263.667969 265.515625 C 263.417969 265.886719 263.207031 266.28125 263.035156 266.691406 C 262.859375 267.105469 262.730469 267.53125 262.640625 267.96875 C 262.550781 268.40625 262.503906 268.847656 262.5 269.296875 L 262.5 274.40625 C 262.5 274.855469 262.457031 275.300781 262.367188 275.742188 C 262.28125 276.183594 262.152344 276.609375 261.980469 277.023438 C 261.808594 277.441406 261.597656 277.835938 261.347656 278.207031 C 261.097656 278.582031 260.8125 278.925781 260.496094 279.246094 C 260.175781 279.5625 259.832031 279.847656 259.457031 280.097656 C 259.085938 280.347656 258.691406 280.558594 258.273438 280.730469 C 257.859375 280.902344 257.433594 281.03125 256.992188 281.117188 C 256.550781 281.207031 256.105469 281.25 255.65625 281.25 L 250.6875 281.25 C 250.234375 281.257812 249.785156 281.21875 249.339844 281.132812 C 248.894531 281.050781 248.460938 280.925781 248.039062 280.757812 C 247.617188 280.585938 247.21875 280.378906 246.839844 280.128906 C 246.460938 279.878906 246.109375 279.597656 245.789062 279.277344 C 245.464844 278.960938 245.175781 278.613281 244.921875 278.238281 C 244.667969 277.863281 244.453125 277.464844 244.28125 277.046875 C 244.105469 276.628906 243.972656 276.199219 243.882812 275.753906 C 243.792969 275.308594 243.75 274.859375 243.75 274.40625 L 243.75 269.296875 C 243.746094 268.851562 243.703125 268.414062 243.613281 267.980469 C 243.523438 267.546875 243.394531 267.125 243.226562 266.714844 C 243.054688 266.304688 242.847656 265.914062 242.601562 265.546875 C 242.355469 265.175781 242.074219 264.835938 241.761719 264.519531 C 241.449219 264.207031 241.109375 263.925781 240.742188 263.675781 C 240.375 263.425781 239.988281 263.214844 239.578125 263.042969 C 239.171875 262.871094 238.75 262.738281 238.316406 262.644531 C 237.882812 262.554688 237.445312 262.507812 237 262.5 L 231.890625 262.5 C 231.4375 262.503906 230.988281 262.460938 230.542969 262.375 C 230.097656 262.289062 229.664062 262.160156 229.246094 261.988281 C 228.828125 261.816406 228.429688 261.605469 228.050781 261.351562 C 227.675781 261.101562 227.324219 260.816406 227.003906 260.496094 C 226.683594 260.175781 226.398438 259.824219 226.148438 259.449219 C 225.894531 259.070312 225.683594 258.671875 225.511719 258.253906 C 225.339844 257.835938 225.210938 257.402344 225.125 256.957031 C 225.039062 256.511719 224.996094 256.0625 225 255.609375 Z M 225 250.640625 " fill-opacity="1" fill-rule="nonzero"/></g><g clip-path="url(#85c1f44adf)"><path fill="#0072ff" d="M 89.90625 243.75 L 151.21875 243.75 C 152.386719 243.765625 153.546875 243.6875 154.703125 243.515625 C 155.859375 243.347656 156.996094 243.085938 158.109375 242.734375 C 159.222656 242.386719 160.304688 241.949219 161.347656 241.425781 C 162.394531 240.902344 163.390625 240.300781 164.339844 239.621094 C 165.289062 238.941406 166.175781 238.1875 167.007812 237.367188 C 167.835938 236.542969 168.59375 235.660156 169.285156 234.71875 C 169.972656 233.773438 170.585938 232.78125 171.117188 231.742188 C 171.648438 230.703125 172.09375 229.625 172.453125 228.515625 C 173.816406 224.070312 175.535156 219.765625 177.609375 215.601562 C 179.683594 211.4375 182.082031 207.472656 184.808594 203.707031 C 187.535156 199.941406 190.554688 196.421875 193.859375 193.152344 C 197.167969 189.882812 200.71875 186.902344 204.515625 184.21875 C 205.21875 183.703125 205.734375 183.046875 206.070312 182.242188 C 206.40625 181.441406 206.507812 180.609375 206.378906 179.75 C 206.253906 178.890625 205.910156 178.125 205.359375 177.453125 C 204.804688 176.78125 204.117188 176.304688 203.296875 176.015625 C 194.515625 173.492188 185.59375 171.664062 176.53125 170.53125 C 175.996094 170.460938 175.472656 170.34375 174.957031 170.175781 C 174.445312 170.011719 173.949219 169.800781 173.472656 169.546875 C 173 169.292969 172.550781 168.996094 172.125 168.660156 C 171.703125 168.324219 171.316406 167.953125 170.960938 167.546875 C 170.605469 167.140625 170.289062 166.703125 170.011719 166.242188 C 169.738281 165.777344 169.503906 165.292969 169.316406 164.785156 C 169.125 164.28125 168.984375 163.761719 168.890625 163.230469 C 168.792969 162.699219 168.75 162.164062 168.75 161.625 C 168.742188 160.8125 168.84375 160.015625 169.054688 159.234375 C 169.265625 158.449219 169.578125 157.710938 169.992188 157.011719 C 170.402344 156.3125 170.902344 155.683594 171.488281 155.121094 C 172.074219 154.558594 172.722656 154.085938 173.4375 153.703125 C 174.285156 153.265625 175.125 152.804688 175.949219 152.324219 C 176.769531 151.839844 177.582031 151.335938 178.375 150.804688 C 179.171875 150.277344 179.953125 149.726562 180.71875 149.15625 C 181.484375 148.585938 182.230469 147.992188 182.964844 147.378906 C 183.695312 146.765625 184.410156 146.132812 185.109375 145.480469 C 185.804688 144.828125 186.484375 144.15625 187.144531 143.464844 C 187.804688 142.773438 188.441406 142.066406 189.0625 141.339844 C 189.683594 140.613281 190.285156 139.871094 190.863281 139.109375 C 191.441406 138.351562 192 137.574219 192.535156 136.785156 C 193.070312 135.996094 193.585938 135.191406 194.078125 134.371094 C 194.566406 133.550781 195.035156 132.71875 195.480469 131.875 C 195.925781 131.03125 196.347656 130.171875 196.746094 129.304688 C 197.140625 128.4375 197.515625 127.558594 197.863281 126.667969 C 198.210938 125.777344 198.535156 124.878906 198.835938 123.972656 C 199.132812 123.066406 199.40625 122.152344 199.65625 121.230469 C 199.902344 120.308594 200.125 119.378906 200.320312 118.445312 C 200.519531 117.507812 200.6875 116.570312 200.832031 115.625 C 200.976562 114.679688 201.09375 113.734375 201.183594 112.78125 C 201.277344 111.832031 201.339844 110.878906 201.378906 109.925781 C 201.417969 108.972656 201.429688 108.015625 201.414062 107.0625 C 201.402344 106.105469 201.359375 105.152344 201.292969 104.199219 C 201.226562 103.246094 201.132812 102.296875 201.011719 101.347656 C 200.890625 100.402344 200.742188 99.457031 200.570312 98.519531 C 200.398438 97.578125 200.199219 96.644531 199.976562 95.71875 C 199.75 94.789062 199.5 93.867188 199.222656 92.953125 C 198.949219 92.039062 198.648438 91.132812 198.320312 90.234375 C 197.996094 89.339844 197.644531 88.449219 197.269531 87.570312 C 196.894531 86.695312 196.492188 85.828125 196.070312 84.96875 C 195.644531 84.113281 195.199219 83.269531 194.726562 82.441406 C 194.257812 81.609375 193.765625 80.792969 193.246094 79.988281 C 192.730469 79.183594 192.195312 78.394531 191.632812 77.621094 C 191.074219 76.847656 190.492188 76.089844 189.890625 75.347656 C 189.289062 74.605469 188.667969 73.882812 188.023438 73.175781 C 187.382812 72.46875 186.722656 71.78125 186.039062 71.109375 C 185.359375 70.441406 184.660156 69.789062 183.945312 69.15625 C 183.226562 68.527344 182.496094 67.914062 181.742188 67.324219 C 180.992188 66.734375 180.226562 66.164062 179.445312 65.617188 C 178.664062 65.070312 177.867188 64.542969 177.054688 64.039062 C 176.242188 63.535156 175.417969 63.054688 174.578125 62.597656 C 173.742188 62.140625 172.890625 61.703125 172.027344 61.292969 C 171.167969 60.882812 170.292969 60.496094 169.410156 60.136719 C 168.527344 59.773438 167.632812 59.433594 166.730469 59.121094 C 165.828125 58.808594 164.917969 58.523438 164 58.261719 C 163.082031 58 162.15625 57.761719 161.222656 57.550781 C 160.292969 57.34375 159.355469 57.15625 158.414062 57 C 157.472656 56.839844 156.527344 56.707031 155.578125 56.601562 C 154.628906 56.496094 153.675781 56.417969 152.722656 56.363281 C 151.769531 56.3125 150.816406 56.285156 149.859375 56.285156 C 148.902344 56.285156 147.949219 56.3125 146.996094 56.363281 C 146.042969 56.417969 145.089844 56.496094 144.140625 56.601562 C 143.191406 56.707031 142.246094 56.839844 141.304688 57 C 140.363281 57.15625 139.425781 57.34375 138.496094 57.550781 C 137.5625 57.761719 136.636719 58 135.71875 58.261719 C 134.800781 58.523438 133.890625 58.808594 132.988281 59.121094 C 132.085938 59.433594 131.191406 59.773438 130.308594 60.136719 C 129.425781 60.496094 128.550781 60.882812 127.691406 61.292969 C 126.828125 61.703125 125.976562 62.140625 125.140625 62.597656 C 124.300781 63.054688 123.476562 63.535156 122.664062 64.039062 C 121.851562 64.542969 121.054688 65.070312 120.273438 65.617188 C 119.492188 66.164062 118.726562 66.734375 117.976562 67.324219 C 117.222656 67.914062 116.492188 68.527344 115.773438 69.15625 C 115.058594 69.789062 114.359375 70.441406 113.679688 71.109375 C 112.996094 71.78125 112.335938 72.46875 111.695312 73.175781 C 111.050781 73.882812 110.429688 74.605469 109.828125 75.347656 C 109.226562 76.089844 108.644531 76.847656 108.085938 77.621094 C 107.523438 78.394531 106.988281 79.183594 106.472656 79.988281 C 105.953125 80.792969 105.460938 81.609375 104.992188 82.441406 C 104.519531 83.269531 104.074219 84.113281 103.648438 84.96875 C 103.226562 85.828125 102.824219 86.695312 102.449219 87.570312 C 102.074219 88.449219 101.722656 89.339844 101.398438 90.234375 C 101.070312 91.132812 100.769531 92.039062 100.496094 92.953125 C 100.21875 93.867188 99.96875 94.789062 99.742188 95.71875 C 99.519531 96.644531 99.320312 97.578125 99.148438 98.519531 C 98.976562 99.457031 98.828125 100.402344 98.707031 101.347656 C 98.585938 102.296875 98.492188 103.246094 98.425781 104.199219 C 98.359375 105.152344 98.316406 106.105469 98.304688 107.0625 C 98.289062 108.015625 98.300781 108.972656 98.339844 109.925781 C 98.378906 110.878906 98.441406 111.832031 98.535156 112.78125 C 98.625 113.734375 98.742188 114.679688 98.886719 115.625 C 99.03125 116.570312 99.203125 117.507812 99.398438 118.445312 C 99.59375 119.378906 99.816406 120.308594 100.0625 121.230469 C 100.3125 122.152344 100.585938 123.066406 100.882812 123.972656 C 101.183594 124.878906 101.507812 125.777344 101.855469 126.667969 C 102.203125 127.558594 102.578125 128.4375 102.972656 129.304688 C 103.371094 130.171875 103.792969 131.03125 104.238281 131.875 C 104.683594 132.71875 105.152344 133.550781 105.640625 134.371094 C 106.132812 135.191406 106.648438 135.996094 107.183594 136.785156 C 107.71875 137.574219 108.277344 138.351562 108.855469 139.109375 C 109.433594 139.871094 110.035156 140.613281 110.65625 141.339844 C 111.277344 142.066406 111.914062 142.773438 112.574219 143.464844 C 113.234375 144.15625 113.914062 144.828125 114.609375 145.480469 C 115.308594 146.132812 116.023438 146.765625 116.753906 147.378906 C 117.488281 147.992188 118.234375 148.585938 119 149.15625 C 119.765625 149.726562 120.546875 150.277344 121.34375 150.804688 C 122.136719 151.335938 122.949219 151.839844 123.769531 152.324219 C 124.59375 152.804688 125.433594 153.265625 126.28125 153.703125 C 127.125 154.148438 127.875 154.710938 128.539062 155.394531 C 129.203125 156.078125 129.746094 156.84375 130.164062 157.699219 C 130.582031 158.554688 130.859375 159.453125 130.996094 160.394531 C 131.128906 161.339844 131.113281 162.277344 130.949219 163.214844 C 130.785156 164.152344 130.480469 165.042969 130.035156 165.882812 C 129.585938 166.726562 129.023438 167.476562 128.335938 168.136719 C 127.652344 168.800781 126.882812 169.339844 126.027344 169.753906 C 125.171875 170.171875 124.269531 170.445312 123.328125 170.578125 C 105.925781 172.601562 89.316406 177.382812 73.5 184.921875 C 72.21875 185.546875 70.992188 186.257812 69.808594 187.054688 C 68.628906 187.847656 67.507812 188.722656 66.449219 189.675781 C 65.390625 190.625 64.402344 191.648438 63.484375 192.734375 C 62.566406 193.824219 61.730469 194.972656 60.972656 196.175781 C 60.210938 197.382812 59.542969 198.632812 58.957031 199.933594 C 58.371094 201.230469 57.882812 202.5625 57.480469 203.929688 C 57.082031 205.296875 56.78125 206.6875 56.574219 208.09375 C 56.367188 209.503906 56.257812 210.917969 56.25 212.34375 C 56.296875 213.40625 56.390625 214.464844 56.539062 215.519531 C 56.6875 216.570312 56.886719 217.613281 57.136719 218.648438 C 57.386719 219.683594 57.683594 220.703125 58.035156 221.707031 C 58.382812 222.710938 58.78125 223.699219 59.222656 224.664062 C 59.667969 225.632812 60.160156 226.574219 60.695312 227.492188 C 61.230469 228.410156 61.8125 229.300781 62.433594 230.164062 C 63.058594 231.027344 63.722656 231.855469 64.425781 232.652344 C 65.128906 233.453125 65.867188 234.214844 66.648438 234.9375 C 67.425781 235.664062 68.234375 236.351562 69.078125 236.996094 C 69.925781 237.644531 70.796875 238.25 71.703125 238.8125 C 72.605469 239.371094 73.535156 239.890625 74.488281 240.359375 C 75.441406 240.832031 76.414062 241.257812 77.410156 241.632812 C 78.402344 242.011719 79.414062 242.339844 80.441406 242.617188 C 81.46875 242.894531 82.503906 243.125 83.554688 243.300781 C 84.601562 243.480469 85.660156 243.605469 86.71875 243.679688 C 87.78125 243.753906 88.84375 243.777344 89.90625 243.75 Z M 89.90625 243.75 " fill-opacity="1" fill-rule="nonzero"/></g></svg>