<svg xmlns="http://www.w3.org/2000/svg" xmlns:xlink="http://www.w3.org/1999/xlink" width="500" zoomAndPan="magnify" viewBox="0 0 375 374.999991" height="500" preserveAspectRatio="xMidYMid meet" version="1.0"><defs><clipPath id="8c93dc1f1f"><path d="M 23 87.402344 L 351.980469 87.402344 L 351.980469 287.652344 L 23 287.652344 Z M 23 87.402344 " clip-rule="nonzero"/></clipPath></defs><g clip-path="url(#8c93dc1f1f)"><path fill="#5e17eb" d="M 23.054688 87.402344 L 23.054688 287.652344 L 51.628906 287.652344 L 51.628906 273.351562 L 37.339844 273.351562 L 37.339844 101.707031 L 123.066406 101.707031 L 123.066406 273.351562 L 108.777344 273.351562 L 108.777344 287.652344 L 151.640625 287.652344 L 151.640625 273.351562 L 137.351562 273.351562 L 137.351562 101.707031 L 237.363281 101.707031 L 237.363281 273.351562 L 223.074219 273.351562 L 223.074219 287.652344 L 265.9375 287.652344 L 265.9375 273.351562 L 251.648438 273.351562 L 251.648438 101.707031 L 337.371094 101.707031 L 337.371094 273.351562 L 323.085938 273.351562 L 323.085938 287.652344 L 351.660156 287.652344 L 351.660156 87.402344 Z M 158.78125 151.769531 L 158.78125 230.4375 L 173.070312 230.4375 L 173.070312 194.679688 L 193.605469 194.679688 C 214.898438 194.679688 215.929688 176.605469 215.929688 173.226562 C 215.929688 169.84375 214.898438 151.769531 193.605469 151.769531 Z M 173.070312 166.074219 L 193.605469 166.074219 C 196.984375 166.074219 201.644531 166.074219 201.644531 173.226562 C 201.644531 180.375 196.984375 180.375 193.605469 180.375 L 173.070312 180.375 Z M 173.070312 166.074219 " fill-opacity="1" fill-rule="nonzero"/></g></svg>