<svg xmlns="http://www.w3.org/2000/svg" xmlns:xlink="http://www.w3.org/1999/xlink" width="500" zoomAndPan="magnify" viewBox="0 0 375 374.999991" height="500" preserveAspectRatio="xMidYMid meet" version="1.0"><defs><clipPath id="684a88ce04"><path d="M 296 208 L 343 208 L 343 313.292969 L 296 313.292969 Z M 296 208 " clip-rule="nonzero"/></clipPath><clipPath id="66ad720e03"><path d="M 31 64 L 344.570312 64 L 344.570312 277 L 31 277 Z M 31 64 " clip-rule="nonzero"/></clipPath></defs><path fill="#0f0550" d="M 76.207031 224.359375 C 75.867188 222.203125 75.484375 219.761719 74.214844 217.714844 C 71.480469 213.304688 67.078125 213.585938 63.171875 214.199219 C 58.382812 214.949219 54.359375 214.300781 49.265625 213.476562 L 49.035156 213.441406 C 48.863281 213.40625 48.695312 213.53125 48.667969 213.707031 C 48.664062 213.738281 48.667969 213.769531 48.671875 213.800781 L 46.476562 214.089844 C 46.46875 214.039062 46.453125 213.984375 46.417969 213.9375 C 45.71875 213.019531 44.621094 212.5625 43.332031 212.652344 C 41.609375 212.773438 39.90625 213.839844 39.089844 215.300781 C 37.296875 218.523438 36.339844 238.863281 36.667969 244.488281 C 36.796875 246.710938 36.808594 250.917969 36.816406 256.246094 C 36.859375 275.0625 36.921875 306.558594 42.546875 309.566406 C 44.617188 310.671875 50.851562 311.199219 57.726562 311.199219 C 66.121094 311.199219 75.472656 310.414062 79.375 308.957031 C 80.21875 308.640625 81.167969 308.234375 81.746094 307.417969 C 82.203125 306.765625 82.339844 305.957031 82.449219 305.304688 C 83.65625 298.167969 83.238281 290.605469 82.902344 284.53125 C 81.898438 266.355469 79.707031 246.675781 76.207031 224.359375 Z M 76.207031 224.359375 " fill-opacity="1" fill-rule="nonzero"/><g clip-path="url(#684a88ce04)"><path fill="#0f0550" d="M 336.75 209.292969 C 335.789062 208.476562 334.695312 208.183594 333.492188 208.421875 C 328.609375 209.390625 323.101562 212.257812 316.660156 217.179688 C 309.433594 222.703125 303.875 230.265625 301.011719 238.480469 C 298.476562 245.746094 297.820312 253.605469 297.402344 260.398438 C 296.457031 275.710938 295.742188 290.753906 297.285156 306.480469 C 297.398438 307.628906 298.105469 308.65625 299.386719 309.535156 C 303.375 312.273438 312.777344 313.28125 320.902344 313.28125 C 326.183594 313.28125 330.925781 312.855469 333.28125 312.199219 C 339.96875 310.335938 340.984375 304.492188 341.410156 299.164062 C 341.621094 296.550781 341.890625 279.5625 341.816406 273.914062 C 341.789062 271.8125 341.890625 268.449219 342.019531 264.191406 C 342.574219 245.800781 343.503906 215.023438 336.75 209.292969 Z M 336.75 209.292969 " fill-opacity="1" fill-rule="nonzero"/></g><g clip-path="url(#66ad720e03)"><path fill="#5f95d7" d="M 342.757812 138.734375 C 344.003906 137.285156 344.164062 135.285156 344.15625 133.339844 C 344.148438 131.820312 344.078125 130.28125 343.9375 128.765625 C 343.859375 127.875 343.730469 126.945312 343.140625 126.242188 C 342.617188 125.625 341.855469 125.328125 341.058594 125.058594 C 340.804688 124.972656 340.472656 124.855469 340.070312 124.714844 C 325.113281 119.484375 317.191406 118.605469 315.851562 122.019531 C 315.597656 122.660156 315.609375 123.359375 315.640625 123.964844 C 315.738281 125.949219 316.066406 127.925781 316.609375 129.832031 C 316.710938 130.1875 316.832031 130.570312 316.960938 130.964844 C 317.347656 132.164062 317.785156 133.523438 317.785156 134.734375 C 317.789062 135.699219 317.515625 136.445312 316.945312 137.011719 C 316.351562 137.609375 315.5 137.5625 314.59375 137.511719 C 314.273438 137.496094 313.945312 137.480469 313.617188 137.492188 C 308.601562 128.273438 304.132812 118.804688 299.773438 109.570312 C 296.273438 102.144531 292.652344 94.46875 288.777344 86.976562 C 288.5 86.445312 288.179688 85.796875 287.8125 85.0625 C 284.082031 77.582031 276.316406 62.023438 268.152344 64.984375 C 266.496094 65.589844 265.382812 67.042969 264.308594 68.445312 C 263.140625 69.972656 262.039062 71.417969 260.332031 71.734375 C 258.691406 72.042969 255.921875 71.585938 253.476562 71.179688 C 252.097656 70.953125 250.792969 70.738281 249.773438 70.667969 C 248.304688 70.566406 246.835938 70.445312 245.367188 70.324219 C 241.929688 70.039062 238.375 69.742188 234.871094 69.742188 C 234.867188 69.742188 234.863281 69.742188 234.859375 69.742188 C 225.667969 69.15625 216.53125 68.84375 205.640625 68.558594 C 187.644531 68.085938 168.042969 68.46875 145.71875 69.730469 C 142.875 69.894531 139.933594 70.265625 136.820312 70.664062 C 131.371094 71.355469 125.734375 72.074219 120.714844 71.550781 C 118.789062 71.347656 116.953125 70.589844 115.175781 69.855469 C 111.867188 68.492188 108.453125 67.082031 104.542969 69.378906 C 100.238281 71.914062 97.855469 76.769531 95.75 81.054688 C 88.042969 96.757812 79.335938 112.074219 71.835938 124.988281 C 69.851562 128.40625 67.992188 131.890625 66.191406 135.261719 C 66.140625 135.359375 66.085938 135.453125 66.035156 135.550781 C 65.472656 135.535156 64.890625 135.574219 64.355469 135.609375 C 63.90625 135.640625 63.480469 135.671875 63.117188 135.664062 C 61.789062 135.640625 61.042969 135.335938 60.839844 134.730469 C 60.726562 134.402344 60.796875 134.023438 60.902344 133.5625 L 62.328125 127.269531 C 62.625 125.960938 62.960938 124.476562 62.601562 123.035156 C 61.871094 120.121094 58.621094 118.65625 55.769531 118.703125 C 53.671875 118.746094 51.65625 119.40625 49.707031 120.042969 C 49.023438 120.265625 48.339844 120.488281 47.652344 120.6875 C 46.503906 121.015625 45.300781 121.285156 44.140625 121.542969 C 41.703125 122.085938 39.1875 122.644531 36.929688 123.832031 C 33.636719 125.5625 30.71875 129.441406 31.800781 133.21875 C 32.957031 137.269531 37.652344 138.832031 41.085938 139.660156 C 47.027344 141.085938 53.125 142.066406 59.210938 142.574219 C 59.445312 142.59375 60.222656 142.652344 61.253906 142.652344 C 61.546875 142.652344 61.863281 142.648438 62.191406 142.636719 C 58.722656 148.84375 55.027344 154.75 50.15625 160.238281 C 44.058594 167.105469 39.691406 172.699219 39.054688 182.128906 C 37.875 199.542969 38.148438 218.703125 39.921875 242.429688 C 40.351562 248.207031 40.917969 253.816406 43.113281 258.949219 C 48.363281 271.238281 61.9375 272.65625 73.910156 273.910156 C 75.140625 274.035156 76.351562 274.164062 77.53125 274.300781 C 90.320312 275.777344 103.382812 276.121094 115.917969 276.121094 C 118.648438 276.121094 121.351562 276.105469 124.023438 276.082031 C 159.535156 275.753906 195.144531 274.839844 225.738281 274.011719 C 240.089844 273.621094 254.671875 273.761719 268.769531 273.898438 C 281.957031 274.027344 295.589844 274.160156 308.957031 273.855469 C 313.78125 273.746094 318.769531 273.632812 323.410156 271.878906 C 337.023438 266.734375 337.316406 254.339844 337.597656 242.355469 C 337.648438 240.1875 337.703125 237.945312 337.835938 235.804688 C 338.792969 220.71875 339.777344 205.113281 340.40625 189.335938 C 340.53125 186.183594 340.660156 182.921875 340.03125 179.746094 C 339.035156 174.730469 335.71875 170.628906 332.511719 166.664062 C 331.992188 166.023438 331.480469 165.390625 330.980469 164.757812 C 326.8125 159.464844 323.199219 153.828125 319.054688 146.992188 C 318.214844 145.609375 317.398438 144.210938 316.589844 142.808594 C 323.445312 142.457031 330.359375 141.84375 337.160156 140.96875 C 339.253906 140.699219 341.410156 140.304688 342.757812 138.734375 Z M 342.757812 138.734375 " fill-opacity="1" fill-rule="nonzero"/></g><path fill="#f2aca1" d="M 300.140625 258.933594 C 299.855469 256.550781 297.117188 253.8125 295.117188 251.816406 C 294.644531 251.339844 294.214844 250.910156 293.871094 250.539062 C 289.40625 245.699219 281.320312 239.054688 275.128906 236.273438 C 270.050781 233.988281 264.523438 233.851562 259.183594 233.714844 C 257.914062 233.683594 256.648438 233.652344 255.390625 233.589844 C 251.148438 233.390625 213.8125 233.5 177.707031 233.609375 C 148.90625 233.695312 121.703125 233.773438 115.90625 233.675781 C 99.746094 233.394531 93.964844 240.832031 85.191406 252.082031 C 84.503906 252.960938 83.914062 253.863281 83.441406 254.765625 C 82.507812 256.527344 82.445312 258.160156 83.246094 259.613281 C 85.695312 264.054688 95.425781 264.914062 96.527344 264.996094 C 108.660156 265.914062 121.691406 266.804688 132.957031 267.570312 C 138.042969 267.914062 143.234375 268.199219 148.398438 268.421875 C 156.195312 268.757812 164.003906 268.894531 171.804688 268.894531 C 191.589844 268.894531 211.3125 268 230.566406 267.125 C 241.523438 266.628906 252.851562 266.113281 264.042969 265.769531 C 264.746094 265.746094 265.953125 265.75 267.484375 265.757812 C 276.523438 265.792969 295.328125 265.875 299.328125 261.375 C 299.972656 260.652344 300.246094 259.828125 300.140625 258.933594 Z M 300.140625 258.933594 " fill-opacity="1" fill-rule="nonzero"/><path fill="#f2aca1" d="M 183.378906 165.714844 L 183.421875 165.734375 C 184.988281 166.410156 186.613281 166.65625 188.238281 166.65625 C 190.601562 166.65625 192.960938 166.136719 195.148438 165.652344 L 195.46875 165.582031 C 196.195312 165.421875 196.988281 164.429688 197.210938 164.097656 C 197.472656 163.699219 197.523438 163.253906 197.351562 162.8125 C 197.019531 161.949219 195.921875 161.3125 195.046875 161.09375 C 191.539062 160.207031 186.640625 159.753906 183.410156 161.148438 C 182.5 161.542969 181.929688 162.417969 181.925781 163.4375 C 181.921875 164.445312 182.480469 165.320312 183.378906 165.714844 Z M 183.378906 165.714844 " fill-opacity="1" fill-rule="nonzero"/><path fill="#f4e6d5" d="M 272.511719 178.453125 C 270.222656 175.125 264.183594 174.371094 258 174.046875 C 250.078125 173.636719 243.679688 173.324219 237.863281 173.058594 C 222.402344 172.359375 209.597656 171.941406 197.5625 171.746094 C 167.667969 171.265625 141.648438 172.21875 118.03125 174.667969 C 110.59375 175.441406 102.980469 177.578125 102.902344 187.585938 C 102.878906 190.730469 103.96875 194.09375 106.148438 197.582031 C 110.847656 205.113281 119.113281 211.109375 129.425781 214.460938 C 138.921875 217.550781 148.875 218.347656 158.214844 218.746094 C 161.003906 218.867188 163.449219 218.988281 165.792969 219.109375 C 172.65625 219.457031 178.582031 219.757812 189.527344 219.757812 C 190.609375 219.757812 191.777344 219.761719 193.023438 219.761719 C 194.429688 219.765625 195.933594 219.769531 197.515625 219.769531 C 211.371094 219.769531 231.039062 219.519531 242.078125 216.667969 C 252.199219 214.058594 261.707031 208.855469 268.164062 202.390625 C 274.101562 196.445312 278 186.417969 272.511719 178.453125 Z M 272.511719 178.453125 " fill-opacity="1" fill-rule="nonzero"/><path fill="#f9b054" d="M 96.605469 173.117188 C 94.566406 172.558594 90.1875 171.695312 88.070312 171.339844 C 86.996094 171.160156 85.945312 170.984375 84.90625 170.808594 C 75.359375 169.191406 67.109375 167.792969 56.886719 168.289062 C 54.347656 168.410156 51.214844 168.84375 49.527344 171.125 C 48.171875 172.945312 48.1875 175.320312 48.328125 177.792969 C 48.375 178.625 48.394531 179.503906 48.417969 180.414062 C 48.519531 184.667969 48.636719 189.488281 51.367188 192.695312 C 54.890625 196.832031 62.125 197.023438 67.410156 197.164062 C 67.972656 197.175781 68.519531 197.191406 69.035156 197.210938 C 70.226562 197.253906 71.523438 197.34375 72.898438 197.4375 C 75.039062 197.585938 77.378906 197.746094 79.714844 197.746094 C 83.488281 197.746094 87.25 197.324219 90.140625 195.738281 C 90.355469 195.617188 90.5625 195.480469 90.761719 195.328125 C 94.320312 192.65625 95.65625 187.964844 96.953125 183.425781 C 97.199219 182.566406 97.441406 181.714844 97.699219 180.871094 C 97.75 180.707031 97.863281 180.390625 98 179.992188 C 98.636719 178.167969 99.207031 176.480469 99.175781 175.902344 C 99.089844 174.445312 97.785156 173.4375 96.605469 173.117188 Z M 96.605469 173.117188 " fill-opacity="1" fill-rule="nonzero"/><path fill="#f9b054" d="M 329.140625 174.84375 L 329.082031 174.488281 C 328.148438 168.964844 326.125 166.972656 321.058594 166.589844 C 316.003906 166.207031 311.058594 167.460938 306.269531 168.667969 C 303.902344 169.269531 301.640625 169.675781 299.453125 170.070312 C 297.253906 170.464844 294.980469 170.875 292.589844 171.480469 C 291.96875 171.636719 291.171875 171.800781 290.25 171.984375 C 287.164062 172.609375 282.941406 173.464844 281.269531 175.085938 C 277.996094 178.25 282.027344 185.691406 284.695312 190.613281 C 285.332031 191.792969 285.886719 192.8125 286.210938 193.546875 C 286.835938 194.960938 287.613281 196.71875 289.113281 197.722656 C 290.320312 198.527344 291.808594 198.722656 293.226562 198.847656 C 295.582031 199.0625 297.957031 199.167969 300.335938 199.167969 C 308.320312 199.167969 316.363281 197.980469 323.945312 195.664062 C 332.234375 193.132812 330.296875 181.683594 329.140625 174.84375 Z M 329.140625 174.84375 " fill-opacity="1" fill-rule="nonzero"/><path fill="#5f95d7" d="M 278.492188 185.753906 C 253.65625 183.941406 224.765625 184.363281 199.277344 184.730469 L 195.273438 184.789062 C 177.746094 185.039062 158.445312 185.425781 139.78125 185.796875 C 126.203125 186.070312 112.164062 186.351562 99.273438 186.570312 C 98.5625 186.582031 98 187.167969 98.011719 187.878906 C 98.023438 188.582031 98.59375 189.144531 99.296875 189.144531 C 99.300781 189.144531 99.308594 189.144531 99.316406 189.144531 C 112.210938 188.925781 126.253906 188.644531 139.832031 188.371094 C 158.492188 188 177.789062 187.613281 195.308594 187.363281 L 199.3125 187.304688 C 224.746094 186.9375 253.578125 186.519531 278.304688 188.324219 C 279.011719 188.359375 279.628906 187.84375 279.679688 187.132812 C 279.730469 186.425781 279.199219 185.808594 278.492188 185.753906 Z M 278.492188 185.753906 " fill-opacity="1" fill-rule="nonzero"/><path fill="#5f95d7" d="M 272.148438 202.632812 C 272.144531 202.632812 272.140625 202.632812 272.132812 202.632812 C 241.554688 202.941406 209.730469 203.425781 188.417969 203.78125 L 180.738281 203.90625 C 157.523438 204.28125 133.511719 204.671875 108.746094 205.898438 C 108.035156 205.933594 107.488281 206.539062 107.523438 207.25 C 107.558594 207.9375 108.125 208.472656 108.808594 208.472656 C 108.828125 208.472656 108.851562 208.472656 108.871094 208.472656 C 133.597656 207.246094 157.585938 206.859375 180.78125 206.480469 L 188.460938 206.355469 C 209.769531 206.003906 241.589844 205.515625 272.160156 205.207031 C 272.871094 205.199219 273.441406 204.617188 273.433594 203.90625 C 273.425781 203.199219 272.851562 202.632812 272.148438 202.632812 Z M 272.148438 202.632812 " fill-opacity="1" fill-rule="nonzero"/><path fill="#0f0550" d="M 333.371094 253.832031 C 333.273438 253.492188 332.917969 253.296875 332.574219 253.390625 C 327.910156 254.75 310.949219 254.453125 305.472656 250.285156 C 302.769531 248.222656 300.15625 245.574219 297.246094 241.9375 C 288.980469 231.613281 278.535156 227.078125 262.316406 226.777344 C 250.867188 226.566406 239.210938 226.8125 227.9375 227.046875 C 222.757812 227.152344 217.402344 227.265625 212.144531 227.332031 L 110.671875 228.605469 C 104.269531 228.6875 95.507812 228.796875 89.289062 233.550781 C 86.359375 235.792969 84.238281 238.859375 82.1875 241.824219 C 80.359375 244.46875 78.46875 247.203125 76.035156 249.273438 C 71.109375 253.472656 64.757812 254.421875 60.300781 254.476562 C 54.554688 254.539062 48.839844 253.28125 43.308594 252.050781 C 42.964844 251.976562 42.621094 252.191406 42.542969 252.539062 C 42.464844 252.886719 42.683594 253.230469 43.03125 253.308594 C 48.480469 254.519531 54.109375 255.769531 59.828125 255.769531 C 59.992188 255.769531 60.15625 255.765625 60.320312 255.765625 C 64.988281 255.707031 71.648438 254.703125 76.871094 250.253906 C 79.429688 248.070312 81.371094 245.269531 83.246094 242.554688 C 85.238281 239.671875 87.300781 236.691406 90.070312 234.574219 C 95.507812 230.414062 102.625 229.992188 110.6875 229.894531 L 212.164062 228.617188 C 217.425781 228.550781 222.785156 228.441406 227.964844 228.332031 C 239.226562 228.097656 250.875 227.855469 262.292969 228.066406 C 278.089844 228.359375 288.246094 232.75 296.246094 242.746094 C 299.222656 246.460938 301.90625 249.183594 304.699219 251.308594 C 308.203125 253.976562 315.226562 254.894531 319.101562 255.207031 C 324.5625 255.644531 330.253906 255.410156 332.933594 254.628906 C 333.273438 254.53125 333.46875 254.171875 333.371094 253.832031 Z M 333.371094 253.832031 " fill-opacity="1" fill-rule="nonzero"/><path fill="#0f0550" d="M 190.332031 210.203125 C 192.285156 210.203125 194.21875 209.886719 196.007812 209.203125 C 200.09375 207.644531 203.582031 204.015625 205.339844 199.5 C 207.042969 195.121094 206.933594 190.425781 205.035156 186.625 C 203.207031 182.96875 197.769531 178.558594 193.222656 178.128906 C 185.914062 177.445312 181.117188 178.277344 176.707031 184.652344 C 172.941406 190.097656 172.433594 196.636719 175.34375 202.152344 C 177.941406 207.082031 184.226562 210.203125 190.332031 210.203125 Z M 190.332031 210.203125 " fill-opacity="1" fill-rule="nonzero"/><path fill="#0f0550" d="M 277.753906 170.570312 C 277.898438 170.570312 278.046875 170.519531 278.167969 170.417969 C 288.785156 161.425781 297.679688 150.742188 304.601562 138.664062 C 304.777344 138.359375 304.671875 137.964844 304.363281 137.789062 C 304.054688 137.609375 303.664062 137.714844 303.488281 138.023438 C 296.640625 149.972656 287.839844 160.539062 277.335938 169.4375 C 277.066406 169.664062 277.03125 170.070312 277.261719 170.34375 C 277.386719 170.492188 277.570312 170.570312 277.753906 170.570312 Z M 277.753906 170.570312 " fill-opacity="1" fill-rule="nonzero"/><path fill="#0f0550" d="M 89.914062 153.066406 C 93.921875 158.011719 98.894531 163.398438 105.34375 165.863281 C 105.421875 165.890625 105.496094 165.902344 105.574219 165.902344 C 105.832031 165.902344 106.078125 165.746094 106.175781 165.488281 C 106.300781 165.15625 106.136719 164.785156 105.804688 164.65625 C 99.652344 162.3125 95.011719 157.308594 90.910156 152.253906 C 87.800781 148.417969 84.839844 144.382812 82.113281 140.265625 C 81.914062 139.96875 81.515625 139.886719 81.222656 140.085938 C 80.925781 140.28125 80.84375 140.679688 81.042969 140.976562 C 83.789062 145.132812 86.777344 149.199219 89.914062 153.066406 Z M 89.914062 153.066406 " fill-opacity="1" fill-rule="nonzero"/><path fill="#f4e6d5" d="M 327.226562 244.0625 C 326.625 239.113281 325.71875 234.148438 324.539062 229.308594 C 324.183594 227.84375 323.691406 226.210938 322.324219 225.324219 C 320.179688 223.929688 313.355469 222.367188 309.648438 223.890625 C 308.339844 224.429688 307.507812 225.335938 307.253906 226.511719 C 307.007812 227.636719 307.304688 228.765625 307.628906 229.824219 C 309.109375 234.675781 311.0625 239.410156 313.433594 243.898438 C 314.707031 246.3125 316.238281 248.664062 318.78125 249.519531 C 319.570312 249.78125 320.382812 249.871094 321.183594 249.871094 C 322.027344 249.871094 322.855469 249.773438 323.632812 249.683594 C 324.292969 249.605469 325.109375 249.507812 325.804688 249.058594 C 327.492188 247.964844 327.421875 245.683594 327.226562 244.0625 Z M 325.105469 247.980469 C 324.664062 248.265625 324.039062 248.339844 323.484375 248.402344 C 322.105469 248.566406 320.542969 248.75 319.191406 248.296875 C 317.074219 247.585938 315.71875 245.472656 314.570312 243.296875 C 312.238281 238.882812 310.316406 234.222656 308.855469 229.449219 C 308.570312 228.515625 308.332031 227.609375 308.507812 226.789062 C 308.675781 226.023438 309.210938 225.464844 310.136719 225.082031 C 311.042969 224.707031 312.214844 224.554688 313.472656 224.554688 C 316.601562 224.554688 320.25 225.511719 321.625 226.40625 C 322.597656 227.035156 322.980469 228.335938 323.289062 229.613281 C 324.457031 234.402344 325.351562 239.320312 325.949219 244.21875 C 326.199219 246.25 325.929688 247.445312 325.105469 247.980469 Z M 325.105469 247.980469 " fill-opacity="1" fill-rule="nonzero"/><path fill="#f4e6d5" d="M 65.308594 221.929688 C 60.757812 220.113281 57.125 220.1875 54.507812 222.15625 C 49.554688 225.886719 49.394531 235.71875 50.132812 243.308594 C 50.25 244.5 50.421875 245.75 51.144531 246.792969 C 51.894531 247.882812 53.132812 248.535156 54.632812 248.628906 C 54.753906 248.636719 54.878906 248.640625 55 248.640625 C 56.238281 248.640625 57.492188 248.257812 58.492188 247.5625 C 60.648438 246.070312 61.792969 243.589844 62.695312 241.382812 C 64.710938 236.449219 66.308594 231.304688 67.441406 226.097656 C 67.625 225.257812 67.769531 224.367188 67.363281 223.539062 C 66.933594 222.667969 66.039062 222.222656 65.308594 221.929688 Z M 66.183594 225.824219 C 65.066406 230.957031 63.492188 236.027344 61.503906 240.890625 C 60.671875 242.929688 59.625 245.210938 57.761719 246.503906 C 56.90625 247.09375 55.765625 247.410156 54.710938 247.34375 C 53.617188 247.273438 52.722656 246.820312 52.199219 246.0625 C 51.652344 245.269531 51.511719 244.207031 51.410156 243.183594 C 50.703125 235.921875 50.800781 226.554688 55.277344 223.1875 C 56.410156 222.335938 57.789062 221.910156 59.410156 221.910156 C 60.992188 221.910156 62.804688 222.316406 64.832031 223.125 C 65.382812 223.34375 65.976562 223.632812 66.207031 224.109375 C 66.429688 224.5625 66.324219 225.179688 66.183594 225.824219 Z M 66.183594 225.824219 " fill-opacity="1" fill-rule="nonzero"/><path fill="#f4e6d5" d="M 267.195312 73.671875 C 270.277344 75.496094 272.710938 78.488281 273.867188 81.882812 C 273.960938 82.152344 274.210938 82.320312 274.476562 82.320312 C 274.546875 82.320312 274.617188 82.308594 274.683594 82.285156 C 275.019531 82.171875 275.199219 81.804688 275.085938 81.46875 C 273.828125 77.789062 271.191406 74.542969 267.847656 72.5625 C 267.542969 72.382812 267.148438 72.484375 266.96875 72.789062 C 266.789062 73.097656 266.890625 73.492188 267.195312 73.671875 Z M 267.195312 73.671875 " fill-opacity="1" fill-rule="nonzero"/><path fill="#f4e6d5" d="M 105.957031 81.5 C 106.023438 81.519531 106.085938 81.527344 106.152344 81.527344 C 106.425781 81.527344 106.675781 81.351562 106.765625 81.078125 C 107.574219 78.492188 108.953125 76.058594 110.75 74.035156 C 110.984375 73.769531 110.960938 73.363281 110.695312 73.125 C 110.429688 72.890625 110.023438 72.914062 109.789062 73.179688 C 107.871094 75.335938 106.402344 77.9375 105.539062 80.691406 C 105.429688 81.03125 105.621094 81.394531 105.957031 81.5 Z M 105.957031 81.5 " fill-opacity="1" fill-rule="nonzero"/><path fill="#f4e6d5" d="M 279.5 86.4375 C 277.625 82.753906 263.695312 81.648438 250.789062 80.902344 L 249.335938 80.816406 C 241.339844 80.34375 232.511719 80.582031 223.972656 80.816406 C 219.054688 80.949219 213.964844 81.089844 209.09375 81.089844 C 203.839844 81.089844 198.8125 81.078125 193.894531 81.0625 C 178.621094 81.027344 164.191406 80.992188 147.71875 81.347656 C 140.148438 81.507812 132.457031 81.765625 125.019531 82.015625 C 120.832031 82.15625 116.640625 82.296875 112.449219 82.421875 C 101 82.761719 98.707031 88.730469 95.808594 96.289062 C 95.007812 98.378906 94.179688 100.539062 93.09375 102.796875 C 92.121094 104.820312 91.101562 106.871094 90.113281 108.851562 C 87.390625 114.328125 84.570312 119.988281 82.394531 125.832031 L 82.164062 126.441406 C 80.785156 130.132812 79.785156 132.800781 80.945312 134.4375 C 81.734375 135.550781 83.40625 136.058594 86.335938 136.058594 C 86.523438 136.058594 86.71875 136.054688 86.917969 136.050781 C 92.085938 135.941406 97.335938 135.734375 102.417969 135.53125 C 105.363281 135.410156 108.308594 135.292969 111.257812 135.195312 C 143.539062 134.101562 176.296875 133.179688 208.613281 132.449219 C 221.574219 132.15625 232.375 131.964844 243.546875 132.351562 C 253.96875 132.351562 264.605469 132.71875 274.894531 133.074219 C 281.5625 133.304688 288.457031 133.542969 295.21875 133.679688 C 295.726562 133.6875 296.363281 133.699219 296.894531 133.371094 C 297.570312 132.953125 297.8125 132.148438 297.9375 131.578125 C 298.667969 128.203125 297.460938 124.738281 296.160156 121.476562 C 291.863281 110.691406 284.125 95.507812 279.5 86.4375 Z M 279.5 86.4375 " fill-opacity="1" fill-rule="nonzero"/><path fill="#f4e6d5" d="M 238.175781 251.5625 C 232.480469 250.019531 226.539062 249.921875 220.792969 249.828125 C 215.0625 249.734375 209.566406 249.976562 204.253906 250.207031 C 198.960938 250.4375 193.484375 250.679688 187.796875 250.582031 C 177.664062 250.417969 167.179688 250.246094 156.871094 250.121094 C 151.867188 250.0625 146.199219 249.996094 140.878906 251.257812 C 132.164062 253.328125 125.492188 257.914062 121.039062 264.894531 C 120.847656 265.195312 120.9375 265.59375 121.234375 265.785156 C 121.34375 265.851562 121.460938 265.886719 121.582031 265.886719 C 121.792969 265.886719 122 265.78125 122.121094 265.589844 C 126.386719 258.898438 132.796875 254.5 141.175781 252.511719 C 146.34375 251.285156 151.6875 251.347656 156.855469 251.410156 C 167.164062 251.53125 177.640625 251.703125 187.777344 251.871094 C 193.503906 251.964844 198.996094 251.726562 204.308594 251.492188 C 209.601562 251.261719 215.074219 251.023438 220.769531 251.117188 C 226.4375 251.210938 232.300781 251.304688 237.839844 252.808594 C 245.558594 254.894531 253.0625 259.808594 257.433594 265.628906 C 257.644531 265.914062 258.046875 265.96875 258.332031 265.757812 C 258.613281 265.542969 258.671875 265.140625 258.457031 264.855469 C 253.929688 258.816406 246.15625 253.722656 238.175781 251.5625 Z M 238.175781 251.5625 " fill-opacity="1" fill-rule="nonzero"/><path fill="#f4e6d5" d="M 91.617188 183.992188 C 91.695312 184.339844 91.480469 184.683594 91.132812 184.765625 C 91.085938 184.777344 91.039062 184.78125 90.988281 184.78125 C 90.695312 184.78125 90.433594 184.582031 90.363281 184.28125 C 89.855469 182.082031 88.339844 180.085938 86.203125 178.800781 C 84.070312 177.519531 81.597656 177.121094 79.417969 177.707031 C 79.078125 177.800781 78.722656 177.597656 78.632812 177.253906 C 78.539062 176.910156 78.742188 176.558594 79.085938 176.464844 C 81.59375 175.785156 84.433594 176.234375 86.867188 177.699219 C 89.300781 179.160156 91.03125 181.453125 91.617188 183.992188 Z M 324.25 180.550781 C 323.664062 178.011719 321.933594 175.71875 319.5 174.257812 C 317.066406 172.792969 314.230469 172.34375 311.71875 173.023438 C 311.375 173.117188 311.171875 173.46875 311.265625 173.8125 C 311.355469 174.15625 311.707031 174.359375 312.054688 174.265625 C 314.226562 173.679688 316.703125 174.078125 318.839844 175.359375 C 320.972656 176.644531 322.492188 178.640625 322.996094 180.839844 C 323.066406 181.140625 323.332031 181.339844 323.625 181.339844 C 323.671875 181.339844 323.71875 181.335938 323.769531 181.324219 C 324.113281 181.242188 324.328125 180.898438 324.25 180.550781 Z M 324.25 180.550781 " fill-opacity="1" fill-rule="nonzero"/></svg>