<svg xmlns="http://www.w3.org/2000/svg" xmlns:xlink="http://www.w3.org/1999/xlink" width="500" zoomAndPan="magnify" viewBox="0 0 375 374.999991" height="500" preserveAspectRatio="xMidYMid meet" version="1.0"><defs><g/></defs><g fill="#7ed957" fill-opacity="1"><g transform="translate(6.505467, 171.60614)"><g><path d="M 35.96875 -69.640625 C 40.957031 -69.640625 45.21875 -68.726562 48.75 -66.90625 C 52.289062 -65.082031 54.96875 -62.523438 56.78125 -59.234375 C 58.59375 -55.953125 59.5 -52.132812 59.5 -47.78125 C 59.5 -43.425781 58.59375 -39.613281 56.78125 -36.34375 C 54.96875 -33.070312 52.289062 -30.523438 48.75 -28.703125 C 45.21875 -26.878906 40.957031 -25.96875 35.96875 -25.96875 L 22.8125 -25.96875 L 22.8125 0 L 9.046875 0 L 9.046875 -69.640625 Z M 34.15625 -36.875 C 41.8125 -36.875 45.640625 -40.507812 45.640625 -47.78125 C 45.640625 -55.082031 41.8125 -58.734375 34.15625 -58.734375 L 22.8125 -58.734375 L 22.8125 -36.875 Z M 34.15625 -36.875 "/></g></g></g><g fill="#7ed957" fill-opacity="1"><g transform="translate(70.147201, 171.60614)"><g><path d="M 66.84375 0 L 52.359375 0 L 47.109375 -16.046875 L 20.4375 -16.046875 L 15.203125 0 L 1.046875 0 L 25.109375 -69.640625 L 42.78125 -69.640625 Z M 33.109375 -55.109375 L 24.15625 -27.625 L 43.296875 -27.625 L 34.296875 -55.109375 Z M 33.109375 -55.109375 "/></g></g></g><g fill="#7ed957" fill-opacity="1"><g transform="translate(138.028549, 171.60614)"><g><path d="M 9.046875 0 L 9.046875 -69.640625 L 37.015625 -69.640625 C 44.222656 -69.640625 49.660156 -67.976562 53.328125 -64.65625 C 56.992188 -61.34375 58.828125 -56.765625 58.828125 -50.921875 C 58.828125 -46.703125 57.753906 -43.238281 55.609375 -40.53125 C 53.472656 -37.832031 50.273438 -35.769531 46.015625 -34.34375 L 46.015625 -33.34375 C 48.210938 -32.394531 49.984375 -30.984375 51.328125 -29.109375 C 52.679688 -27.234375 53.960938 -24.453125 55.171875 -20.765625 L 62.125 0 L 47.96875 0 L 41.15625 -20.8125 C 40.457031 -22.914062 39.671875 -24.546875 38.796875 -25.703125 C 37.921875 -26.859375 36.804688 -27.695312 35.453125 -28.21875 C 34.109375 -28.75 32.359375 -29.015625 30.203125 -29.015625 L 22.8125 -29.015625 L 22.8125 0 Z M 35.34375 -39.921875 C 42.007812 -39.921875 45.34375 -43.03125 45.34375 -49.25 C 45.34375 -55.570312 42.007812 -58.734375 35.34375 -58.734375 L 22.8125 -58.734375 L 22.8125 -39.921875 Z M 35.34375 -39.921875 "/></g></g></g><g fill="#7ed957" fill-opacity="1"><g transform="translate(203.146995, 171.60614)"><g><path d="M 9.046875 0 L 9.046875 -69.640625 L 22.8125 -69.640625 L 22.8125 -41.203125 L 24.34375 -41.203125 L 47.59375 -69.640625 L 61.6875 -69.640625 L 61.6875 -68.453125 L 36.0625 -36.78125 L 64.359375 -1.1875 L 64.359375 0 L 48.78125 0 L 24.34375 -30.0625 L 22.8125 -30.0625 L 22.8125 0 Z M 9.046875 0 "/></g></g></g><g fill="#7ed957" fill-opacity="1"><g transform="translate(267.503275, 171.60614)"><g><path d="M 16.859375 -40.59375 L 7.765625 -40.59375 L 5.578125 -69.640625 L 19 -69.640625 Z M 16.859375 -40.59375 "/></g></g></g><g fill="#7ed957" fill-opacity="1"><g transform="translate(292.13112, 171.60614)"><g><path d="M 22.390625 0 L 9.046875 0 L 9.046875 -69.640625 L 24.8125 -69.640625 L 52.78125 -24.765625 L 54.015625 -24.96875 L 54.015625 -69.640625 L 67.265625 -69.640625 L 67.265625 0 L 53.15625 0 L 23.578125 -47.921875 L 22.390625 -47.734375 Z M 22.390625 0 "/></g></g></g><g fill="#7ed957" fill-opacity="1"><g transform="translate(90.165617, 278.106133)"><g><path d="M 35.96875 -69.640625 C 40.957031 -69.640625 45.21875 -68.726562 48.75 -66.90625 C 52.289062 -65.082031 54.96875 -62.523438 56.78125 -59.234375 C 58.59375 -55.953125 59.5 -52.132812 59.5 -47.78125 C 59.5 -43.425781 58.59375 -39.613281 56.78125 -36.34375 C 54.96875 -33.070312 52.289062 -30.523438 48.75 -28.703125 C 45.21875 -26.878906 40.957031 -25.96875 35.96875 -25.96875 L 22.8125 -25.96875 L 22.8125 0 L 9.046875 0 L 9.046875 -69.640625 Z M 34.15625 -36.875 C 41.8125 -36.875 45.640625 -40.507812 45.640625 -47.78125 C 45.640625 -55.082031 41.8125 -58.734375 34.15625 -58.734375 L 22.8125 -58.734375 L 22.8125 -36.875 Z M 34.15625 -36.875 "/></g></g></g><g fill="#7ed957" fill-opacity="1"><g transform="translate(154.00248, 278.106133)"><g><path d="M 66.84375 0 L 52.359375 0 L 47.109375 -16.046875 L 20.4375 -16.046875 L 15.203125 0 L 1.046875 0 L 25.109375 -69.640625 L 42.78125 -69.640625 Z M 33.109375 -55.109375 L 24.15625 -27.625 L 43.296875 -27.625 L 34.296875 -55.109375 Z M 33.109375 -55.109375 "/></g></g></g><g fill="#7ed957" fill-opacity="1"><g transform="translate(222.078955, 278.106133)"><g><path d="M 38.15625 0 L 24.390625 0 L 24.390625 -27.34375 L 0.328125 -69.640625 L 15.09375 -69.640625 L 31.015625 -42.25 L 32.203125 -42.25 L 47.78125 -69.640625 L 62.21875 -69.640625 L 38.15625 -27.34375 Z M 38.15625 0 "/></g></g></g></svg>